<svg width="48" height="39" viewBox="0 0 48 39" fill="none" xmlns="http://www.w3.org/2000/svg">
<path fill-rule="evenodd" clip-rule="evenodd" d="M4.36364 5.55908C4.36364 2.93573 6.3173 0.809082 8.72727 0.809082H39.2727C41.6827 0.809082 43.6364 2.93573 43.6364 5.55908V24.5591C43.6364 27.1824 41.6827 29.3091 39.2727 29.3091H8.72727C6.3173 29.3091 4.36364 27.1824 4.36364 24.5591V5.55908ZM8.72727 5.55908H39.2727V24.5591H8.72727V5.55908Z" fill="#61DDF7"/>
<path d="M2.18182 34.0591C0.976833 34.0591 0 35.1224 0 36.4341C0 37.7458 0.976833 38.8091 2.18182 38.8091H45.8182C47.0232 38.8091 48 37.7458 48 36.4341C48 35.1224 47.0232 34.0591 45.8182 34.0591H2.18182Z" fill="#61DDF7"/>
</svg>
