<svg width="43" height="32" viewBox="0 0 43 32" fill="none" xmlns="http://www.w3.org/2000/svg">
<path fill-rule="evenodd" clip-rule="evenodd" d="M31.8247 1.67897C30.5917 0.201835 28.1435 -0.417162 26.3566 0.296404C24.5697 1.00997 24.1206 2.78589 25.3537 4.26303L35.1228 15.9662L25.3537 27.6694C24.1206 29.1466 24.5697 30.9225 26.3566 31.6361C28.1435 32.3496 30.5917 31.7306 31.8247 30.2535L42.3038 17.6998C42.5882 17.359 42.7832 17.0024 42.8928 16.6465C42.9647 16.4288 43.0007 16.2008 42.9996 15.9676C43.001 15.733 42.9648 15.5037 42.8924 15.2847C42.7827 14.9292 42.5879 14.573 42.3038 14.2326L31.8247 1.67897Z" fill="white"/>
<path fill-rule="evenodd" clip-rule="evenodd" d="M11.175 1.67897C12.4081 0.201835 14.8562 -0.417162 16.6431 0.296404C18.4301 1.00997 18.8791 2.78589 17.6461 4.26303L7.87692 15.9662L17.6461 27.6694C18.8791 29.1466 18.4301 30.9225 16.6431 31.6361C14.8562 32.3496 12.408 31.7306 11.175 30.2535L0.695949 17.6998C0.411519 17.3591 0.216591 17.0024 0.106946 16.6466C0.035044 16.4287 -0.000995698 16.2006 0.000103003 15.9673C-0.00123604 15.7327 0.0349677 15.5033 0.107434 15.2843C0.217167 14.929 0.41194 14.5729 0.69596 14.2326L11.175 1.67897Z" fill="white"/>
</svg>
