<?xml version="1.0" encoding="UTF-8"?>
<svg xmlns="http://www.w3.org/2000/svg" xmlns:xlink="http://www.w3.org/1999/xlink" width="150pt" height="149.999998pt" viewBox="0 0 150 149.999998" version="1.2">
<defs>
<clipPath id="clip1">
  <path d="M 41.863281 61 L 108.613281 61 L 108.613281 91 L 41.863281 91 Z M 41.863281 61 "/>
</clipPath>
<clipPath id="clip2">
  <path d="M 83 110 L 102 110 L 102 119.40625 L 83 119.40625 Z M 83 110 "/>
</clipPath>
<clipPath id="clip3">
  <path d="M 49 110 L 67 110 L 67 119.40625 L 49 119.40625 Z M 49 110 "/>
</clipPath>
<clipPath id="clip4">
  <path d="M 63 51.15625 L 83 51.15625 L 83 64 L 63 64 Z M 63 51.15625 "/>
</clipPath>
</defs>
<g id="surface1">
<path style=" stroke:none;fill-rule:nonzero;fill:rgb(81.17981%,84.709167%,86.268616%);fill-opacity:1;" d="M 150 150 L 0 150 L 0 4.167969 C 0 1.667969 1.667969 0 4.167969 0 L 145.832031 0 C 148.332031 0 150 1.667969 150 4.167969 Z M 150 150 "/>
<path style=" stroke:none;fill-rule:nonzero;fill:rgb(13.328552%,18.818665%,23.529053%);fill-opacity:1;" d="M 8.332031 29.167969 L 141.667969 29.167969 L 141.667969 141.667969 L 8.332031 141.667969 Z M 8.332031 29.167969 "/>
<path style=" stroke:none;fill-rule:nonzero;fill:rgb(0%,70.588684%,100%);fill-opacity:1;" d="M 39.582031 85 L 54.167969 93.75 L 54.167969 104.167969 L 29.167969 88.75 L 29.167969 80 L 54.167969 66.667969 L 54.167969 77.082031 Z M 39.582031 85 "/>
<path style=" stroke:none;fill-rule:nonzero;fill:rgb(0%,70.588684%,100%);fill-opacity:1;" d="M 70.832031 112.5 L 62.5 112.5 L 79.167969 54.167969 L 87.5 54.167969 Z M 70.832031 112.5 "/>
<path style=" stroke:none;fill-rule:nonzero;fill:rgb(0%,70.588684%,100%);fill-opacity:1;" d="M 110.417969 85.417969 L 95.832031 77.082031 L 95.832031 66.667969 L 120.832031 80.832031 L 120.832031 89.582031 L 95.832031 104.167969 L 95.832031 93.75 Z M 110.417969 85.417969 "/>
<path style=" stroke:none;fill-rule:nonzero;fill:rgb(100%,100%,100%);fill-opacity:1;" d="M 37.5 14.582031 C 37.5 14.992188 37.460938 15.398438 37.378906 15.800781 C 37.300781 16.207031 37.179688 16.597656 37.023438 16.976562 C 36.867188 17.355469 36.675781 17.714844 36.445312 18.054688 C 36.21875 18.398438 35.960938 18.710938 35.667969 19.003906 C 35.378906 19.292969 35.0625 19.550781 34.722656 19.78125 C 34.382812 20.007812 34.019531 20.199219 33.640625 20.359375 C 33.261719 20.515625 32.871094 20.632812 32.46875 20.714844 C 32.066406 20.792969 31.660156 20.832031 31.25 20.832031 C 30.839844 20.832031 30.433594 20.792969 30.03125 20.714844 C 29.628906 20.632812 29.238281 20.515625 28.859375 20.359375 C 28.480469 20.199219 28.117188 20.007812 27.777344 19.78125 C 27.4375 19.550781 27.121094 19.292969 26.832031 19.003906 C 26.539062 18.710938 26.28125 18.398438 26.054688 18.054688 C 25.824219 17.714844 25.632812 17.355469 25.476562 16.976562 C 25.320312 16.597656 25.199219 16.207031 25.121094 15.800781 C 25.039062 15.398438 25 14.992188 25 14.582031 C 25 14.171875 25.039062 13.765625 25.121094 13.363281 C 25.199219 12.960938 25.320312 12.570312 25.476562 12.191406 C 25.632812 11.8125 25.824219 11.453125 26.054688 11.109375 C 26.28125 10.769531 26.539062 10.453125 26.832031 10.164062 C 27.121094 9.875 27.4375 9.613281 27.777344 9.386719 C 28.117188 9.160156 28.480469 8.964844 28.859375 8.808594 C 29.238281 8.652344 29.628906 8.535156 30.03125 8.453125 C 30.433594 8.375 30.839844 8.332031 31.25 8.332031 C 31.660156 8.332031 32.066406 8.375 32.46875 8.453125 C 32.871094 8.535156 33.261719 8.652344 33.640625 8.808594 C 34.019531 8.964844 34.382812 9.160156 34.722656 9.386719 C 35.0625 9.613281 35.378906 9.875 35.667969 10.164062 C 35.960938 10.453125 36.21875 10.769531 36.445312 11.109375 C 36.675781 11.453125 36.867188 11.8125 37.023438 12.191406 C 37.179688 12.570312 37.300781 12.960938 37.378906 13.363281 C 37.460938 13.765625 37.5 14.171875 37.5 14.582031 Z M 37.5 14.582031 "/>
<path style=" stroke:none;fill-rule:nonzero;fill:rgb(100%,100%,100%);fill-opacity:1;" d="M 20.832031 14.582031 C 20.832031 14.992188 20.792969 15.398438 20.714844 15.800781 C 20.632812 16.207031 20.515625 16.597656 20.359375 16.976562 C 20.199219 17.355469 20.007812 17.714844 19.78125 18.054688 C 19.550781 18.398438 19.292969 18.710938 19.003906 19.003906 C 18.710938 19.292969 18.398438 19.550781 18.054688 19.78125 C 17.714844 20.007812 17.355469 20.199219 16.976562 20.359375 C 16.597656 20.515625 16.207031 20.632812 15.800781 20.714844 C 15.398438 20.792969 14.992188 20.832031 14.582031 20.832031 C 14.171875 20.832031 13.765625 20.792969 13.363281 20.714844 C 12.960938 20.632812 12.570312 20.515625 12.191406 20.359375 C 11.8125 20.199219 11.453125 20.007812 11.109375 19.78125 C 10.769531 19.550781 10.453125 19.292969 10.164062 19.003906 C 9.875 18.710938 9.613281 18.398438 9.386719 18.054688 C 9.160156 17.714844 8.964844 17.355469 8.808594 16.976562 C 8.652344 16.597656 8.535156 16.207031 8.453125 15.800781 C 8.375 15.398438 8.332031 14.992188 8.332031 14.582031 C 8.332031 14.171875 8.375 13.765625 8.453125 13.363281 C 8.535156 12.960938 8.652344 12.570312 8.808594 12.191406 C 8.964844 11.8125 9.160156 11.453125 9.386719 11.109375 C 9.613281 10.769531 9.875 10.453125 10.164062 10.164062 C 10.453125 9.875 10.769531 9.613281 11.109375 9.386719 C 11.453125 9.160156 11.8125 8.964844 12.191406 8.808594 C 12.570312 8.652344 12.960938 8.535156 13.363281 8.453125 C 13.765625 8.375 14.171875 8.332031 14.582031 8.332031 C 14.992188 8.332031 15.398438 8.375 15.800781 8.453125 C 16.207031 8.535156 16.597656 8.652344 16.976562 8.808594 C 17.355469 8.964844 17.714844 9.160156 18.054688 9.386719 C 18.398438 9.613281 18.710938 9.875 19.003906 10.164062 C 19.292969 10.453125 19.550781 10.769531 19.78125 11.109375 C 20.007812 11.453125 20.199219 11.8125 20.359375 12.191406 C 20.515625 12.570312 20.632812 12.960938 20.714844 13.363281 C 20.792969 13.765625 20.832031 14.171875 20.832031 14.582031 Z M 20.832031 14.582031 "/>
<path style=" stroke:none;fill-rule:nonzero;fill:rgb(13.328552%,18.818665%,23.529053%);fill-opacity:1;" d="M 8.664062 29.527344 L 141.335938 29.527344 L 141.335938 141.449219 L 8.664062 141.449219 Z M 8.664062 29.527344 "/>
<g clip-path="url(#clip1)" clip-rule="nonzero">
<path style="fill:none;stroke-width:2;stroke-linecap:butt;stroke-linejoin:round;stroke:rgb(20.388794%,18.818665%,23.919678%);stroke-opacity:1;stroke-miterlimit:10;" d="M 2.000581 36.001761 L 2.000581 12.00176 C 2.000581 11.745349 2.098674 11.488939 2.291228 11.2948 C 2.487414 11.096998 2.745364 11.00176 2.99968 11.00176 L 60.998287 11.00176 C 61.256236 11.00176 61.510552 11.096998 61.706739 11.2948 C 61.902926 11.488939 62.001019 11.745349 62.001019 12.00176 L 62.001019 36.001761 " transform="matrix(1.075187,0,0,1.066406,40.833376,51.154374)"/>
</g>
<path style=" stroke:none;fill-rule:nonzero;fill:rgb(0%,70.588684%,100%);fill-opacity:1;" d="M 47.285156 73.550781 L 51.585938 73.550781 L 51.585938 77.816406 L 47.285156 77.816406 Z M 47.285156 73.550781 "/>
<path style=" stroke:none;fill-rule:nonzero;fill:rgb(0%,70.588684%,100%);fill-opacity:1;" d="M 53.734375 73.550781 L 58.035156 73.550781 L 58.035156 77.816406 L 53.734375 77.816406 Z M 53.734375 73.550781 "/>
<path style=" stroke:none;fill-rule:nonzero;fill:rgb(0%,70.588684%,100%);fill-opacity:1;" d="M 60.1875 73.550781 L 64.488281 73.550781 L 64.488281 77.816406 L 60.1875 77.816406 Z M 60.1875 73.550781 "/>
<path style=" stroke:none;fill-rule:nonzero;fill:rgb(0%,70.588684%,100%);fill-opacity:1;" d="M 66.636719 73.550781 L 70.9375 73.550781 L 70.9375 77.816406 L 66.636719 77.816406 Z M 66.636719 73.550781 "/>
<path style=" stroke:none;fill-rule:nonzero;fill:rgb(0%,70.588684%,100%);fill-opacity:1;" d="M 73.089844 73.550781 L 77.390625 73.550781 L 77.390625 77.816406 L 73.089844 77.816406 Z M 73.089844 73.550781 "/>
<path style=" stroke:none;fill-rule:nonzero;fill:rgb(0%,70.588684%,100%);fill-opacity:1;" d="M 79.539062 73.550781 L 83.839844 73.550781 L 83.839844 77.816406 L 79.539062 77.816406 Z M 79.539062 73.550781 "/>
<path style=" stroke:none;fill-rule:nonzero;fill:rgb(0%,70.588684%,100%);fill-opacity:1;" d="M 85.992188 73.550781 L 90.292969 73.550781 L 90.292969 77.816406 L 85.992188 77.816406 Z M 85.992188 73.550781 "/>
<path style=" stroke:none;fill-rule:nonzero;fill:rgb(0%,70.588684%,100%);fill-opacity:1;" d="M 92.441406 73.550781 L 96.742188 73.550781 L 96.742188 77.816406 L 92.441406 77.816406 Z M 92.441406 73.550781 "/>
<path style=" stroke:none;fill-rule:nonzero;fill:rgb(0%,70.588684%,100%);fill-opacity:1;" d="M 98.894531 73.550781 L 103.195312 73.550781 L 103.195312 77.816406 L 98.894531 77.816406 Z M 98.894531 73.550781 "/>
<path style=" stroke:none;fill-rule:nonzero;fill:rgb(0%,70.588684%,100%);fill-opacity:1;" d="M 47.285156 79.949219 L 51.585938 79.949219 L 51.585938 84.214844 L 47.285156 84.214844 Z M 47.285156 79.949219 "/>
<path style=" stroke:none;fill-rule:nonzero;fill:rgb(0%,70.588684%,100%);fill-opacity:1;" d="M 53.734375 79.949219 L 58.035156 79.949219 L 58.035156 84.214844 L 53.734375 84.214844 Z M 53.734375 79.949219 "/>
<path style=" stroke:none;fill-rule:nonzero;fill:rgb(100%,37.249756%,36.079407%);fill-opacity:1;" d="M 60.1875 79.949219 L 90.292969 79.949219 L 90.292969 84.214844 L 60.1875 84.214844 Z M 60.1875 79.949219 "/>
<path style=" stroke:none;fill-rule:nonzero;fill:rgb(0%,70.588684%,100%);fill-opacity:1;" d="M 92.441406 79.949219 L 96.742188 79.949219 L 96.742188 84.214844 L 92.441406 84.214844 Z M 92.441406 79.949219 "/>
<path style=" stroke:none;fill-rule:nonzero;fill:rgb(0%,70.588684%,100%);fill-opacity:1;" d="M 98.894531 79.949219 L 103.195312 79.949219 L 103.195312 84.214844 L 98.894531 84.214844 Z M 98.894531 79.949219 "/>
<path style=" stroke:none;fill-rule:nonzero;fill:rgb(100%,37.249756%,36.079407%);fill-opacity:1;" d="M 50.511719 67.152344 L 54.8125 67.152344 L 54.8125 71.417969 L 50.511719 71.417969 Z M 50.511719 67.152344 "/>
<path style=" stroke:none;fill-rule:nonzero;fill:rgb(0%,70.588684%,100%);fill-opacity:1;" d="M 56.960938 67.152344 L 61.261719 67.152344 L 61.261719 71.417969 L 56.960938 71.417969 Z M 56.960938 67.152344 "/>
<path style=" stroke:none;fill-rule:nonzero;fill:rgb(0%,70.588684%,100%);fill-opacity:1;" d="M 63.414062 67.152344 L 67.714844 67.152344 L 67.714844 71.417969 L 63.414062 71.417969 Z M 63.414062 67.152344 "/>
<path style=" stroke:none;fill-rule:nonzero;fill:rgb(0%,70.588684%,100%);fill-opacity:1;" d="M 69.863281 67.152344 L 74.164062 67.152344 L 74.164062 71.417969 L 69.863281 71.417969 Z M 69.863281 67.152344 "/>
<path style=" stroke:none;fill-rule:nonzero;fill:rgb(0%,70.588684%,100%);fill-opacity:1;" d="M 76.316406 67.152344 L 80.617188 67.152344 L 80.617188 71.417969 L 76.316406 71.417969 Z M 76.316406 67.152344 "/>
<path style=" stroke:none;fill-rule:nonzero;fill:rgb(0%,70.588684%,100%);fill-opacity:1;" d="M 82.765625 67.152344 L 87.066406 67.152344 L 87.066406 71.417969 L 82.765625 71.417969 Z M 82.765625 67.152344 "/>
<path style=" stroke:none;fill-rule:nonzero;fill:rgb(0%,70.588684%,100%);fill-opacity:1;" d="M 89.21875 67.152344 L 93.515625 67.152344 L 93.515625 71.417969 L 89.21875 71.417969 Z M 89.21875 67.152344 "/>
<path style=" stroke:none;fill-rule:nonzero;fill:rgb(0%,70.588684%,100%);fill-opacity:1;" d="M 95.667969 67.152344 L 99.96875 67.152344 L 99.96875 71.417969 L 95.667969 71.417969 Z M 95.667969 67.152344 "/>
<path style="fill:none;stroke-width:2;stroke-linecap:butt;stroke-linejoin:round;stroke:rgb(20.388794%,18.818665%,23.919678%);stroke-opacity:1;stroke-miterlimit:10;" d="M 26.999855 35.001761 L 29.001686 35.001761 " transform="matrix(1.075187,0,0,1.066406,40.833376,51.154374)"/>
<path style="fill:none;stroke-width:2;stroke-linecap:butt;stroke-linejoin:round;stroke:rgb(20.388794%,18.818665%,23.919678%);stroke-opacity:1;stroke-miterlimit:10;" d="M 30.999884 35.001761 L 33.001716 35.001761 " transform="matrix(1.075187,0,0,1.066406,40.833376,51.154374)"/>
<path style="fill:none;stroke-width:2;stroke-linecap:butt;stroke-linejoin:round;stroke:rgb(20.388794%,18.818665%,23.919678%);stroke-opacity:1;stroke-miterlimit:10;" d="M 34.999914 35.001761 L 37.001745 35.001761 " transform="matrix(1.075187,0,0,1.066406,40.833376,51.154374)"/>
<path style=" stroke:none;fill-rule:nonzero;fill:rgb(100%,76.078796%,32.159424%);fill-opacity:1;" d="M 101.488281 84.835938 C 101.070312 84.421875 100.519531 84.214844 99.96875 84.214844 C 99.417969 84.214844 98.867188 84.421875 98.449219 84.835938 C 98.027344 85.253906 97.816406 85.800781 97.816406 86.347656 L 97.816406 84.214844 C 97.816406 83.667969 97.609375 83.121094 97.1875 82.703125 C 96.769531 82.289062 96.21875 82.082031 95.667969 82.082031 C 95.117188 82.082031 94.566406 82.289062 94.148438 82.703125 C 93.726562 83.121094 93.515625 83.667969 93.515625 84.214844 L 93.515625 82.082031 C 93.515625 81.535156 93.308594 80.988281 92.886719 80.570312 C 92.46875 80.15625 91.917969 79.949219 91.367188 79.949219 C 90.816406 79.949219 90.265625 80.15625 89.847656 80.570312 C 89.425781 80.988281 89.21875 81.535156 89.21875 82.082031 L 89.21875 84.214844 C 89.21875 83.667969 89.007812 83.121094 88.585938 82.703125 C 88.167969 82.289062 87.617188 82.082031 87.066406 82.082031 C 86.515625 82.082031 85.964844 82.289062 85.546875 82.703125 C 85.125 83.121094 84.917969 83.667969 84.917969 84.214844 L 84.917969 93.542969 L 84.890625 93.546875 C 84.832031 93.09375 84.636719 92.652344 84.285156 92.300781 C 83.867188 91.886719 83.316406 91.679688 82.765625 91.679688 C 82.214844 91.679688 81.664062 91.886719 81.246094 92.300781 C 80.824219 92.71875 80.617188 93.265625 80.617188 93.8125 L 80.617188 99.167969 C 80.617188 103.410156 85.992188 108.742188 85.992188 108.742188 L 85.992188 111.941406 L 98.894531 111.941406 L 98.894531 108.742188 L 102.117188 100.210938 L 102.117188 86.347656 C 102.117188 85.800781 101.910156 85.253906 101.488281 84.835938 Z M 101.488281 84.835938 "/>
<path style="fill:none;stroke-width:2;stroke-linecap:butt;stroke-linejoin:round;stroke:rgb(20.388794%,18.818665%,23.919678%);stroke-opacity:1;stroke-miterlimit:10;" d="M 45.001803 39.001761 L 45.001803 31.001761 C 45.001803 30.48894 44.805616 29.97612 44.413243 29.584178 C 44.024503 29.1959 43.512237 29.001761 42.999972 29.001761 C 42.487707 29.001761 41.975441 29.1959 41.586701 29.584178 C 41.194328 29.97612 41.001774 30.48894 41.001774 31.001761 L 41.001774 44.001761 " transform="matrix(1.075187,0,0,1.066406,40.833376,51.154374)"/>
<path style="fill:none;stroke-width:2;stroke-linecap:butt;stroke-linejoin:round;stroke:rgb(20.388794%,18.818665%,23.919678%);stroke-opacity:1;stroke-miterlimit:10;" d="M 48.998199 39.001761 L 48.998199 29.001761 C 48.998199 28.48894 48.805646 27.976119 48.413272 27.584178 C 48.024532 27.1959 47.512267 27.00176 47.000001 27.00176 C 46.487736 27.00176 45.975471 27.1959 45.58673 27.584178 C 45.194357 27.976119 45.001803 28.48894 45.001803 29.001761 L 45.001803 39.001761 " transform="matrix(1.075187,0,0,1.066406,40.833376,51.154374)"/>
<path style="fill:none;stroke-width:2;stroke-linecap:butt;stroke-linejoin:round;stroke:rgb(20.388794%,18.818665%,23.919678%);stroke-opacity:1;stroke-miterlimit:10;" d="M 52.998229 39.001761 L 52.998229 31.001761 C 52.998229 30.48894 52.805675 29.97612 52.413301 29.584178 C 52.024561 29.1959 51.512296 29.001761 51.00003 29.001761 C 50.487765 29.001761 49.9755 29.1959 49.586759 29.584178 C 49.194386 29.97612 48.998199 30.48894 48.998199 31.001761 L 48.998199 39.001761 " transform="matrix(1.075187,0,0,1.066406,40.833376,51.154374)"/>
<path style="fill:none;stroke-width:2;stroke-linecap:butt;stroke-linejoin:round;stroke:rgb(20.388794%,18.818665%,23.919678%);stroke-opacity:1;stroke-miterlimit:10;" d="M 54.000961 57.001762 L 54.000961 54.001762 L 56.998258 46.001761 L 56.998258 33.001761 C 56.998258 32.48894 56.805704 31.97612 56.413331 31.584178 C 56.02459 31.1959 55.512325 31.001761 55.00006 31.001761 C 54.487794 31.001761 53.975529 31.1959 53.586789 31.584178 C 53.194415 31.97612 52.998229 32.48894 52.998229 33.001761 L 52.998229 39.001761 " transform="matrix(1.075187,0,0,1.066406,40.833376,51.154374)"/>
<path style="fill:none;stroke-width:2;stroke-linecap:butt;stroke-linejoin:round;stroke:rgb(20.388794%,18.818665%,23.919678%);stroke-opacity:1;stroke-miterlimit:10;" d="M 41.001774 40.001761 C 41.001774 39.488941 40.805587 38.97612 40.413214 38.584179 C 40.024473 38.1959 39.512208 38.001761 38.999943 38.001761 C 38.487677 38.001761 37.975412 38.1959 37.586672 38.584179 C 37.194298 38.97612 37.001745 39.488941 37.001745 40.001761 L 37.001745 45.023739 C 37.001745 49.001762 42.000873 54.001762 42.000873 54.001762 L 42.000873 57.001762 " transform="matrix(1.075187,0,0,1.066406,40.833376,51.154374)"/>
<g clip-path="url(#clip2)" clip-rule="nonzero">
<path style="fill:none;stroke-width:2;stroke-linecap:butt;stroke-linejoin:round;stroke:rgb(20.388794%,18.818665%,23.919678%);stroke-opacity:1;stroke-miterlimit:10;" d="M 55.00006 64.001762 L 55.00006 58.001762 C 55.00006 57.745352 54.901966 57.488941 54.70578 57.294802 C 54.513226 57.097 54.255277 57.001762 54.000961 57.001762 L 42.000873 57.001762 C 41.742924 57.001762 41.488608 57.097 41.292421 57.294802 C 41.096234 57.488941 41.001774 57.745352 41.001774 58.001762 L 41.001774 64.001762 " transform="matrix(1.075187,0,0,1.066406,40.833376,51.154374)"/>
</g>
<path style="fill:none;stroke-width:2;stroke-linecap:butt;stroke-linejoin:round;stroke:rgb(20.388794%,18.818665%,23.919678%);stroke-opacity:1;stroke-miterlimit:10;" d="M 43.999071 61.001762 L 46.000902 61.001762 " transform="matrix(1.075187,0,0,1.066406,40.833376,51.154374)"/>
<path style=" stroke:none;fill-rule:nonzero;fill:rgb(100%,76.078796%,32.159424%);fill-opacity:1;" d="M 48.988281 84.835938 C 49.410156 84.421875 49.960938 84.214844 50.511719 84.214844 C 51.0625 84.214844 51.609375 84.421875 52.03125 84.835938 C 52.449219 85.253906 52.660156 85.800781 52.660156 86.347656 L 52.660156 84.214844 C 52.660156 83.667969 52.871094 83.121094 53.289062 82.703125 C 53.710938 82.289062 54.261719 82.082031 54.8125 82.082031 C 55.359375 82.082031 55.910156 82.289062 56.332031 82.703125 C 56.75 83.121094 56.960938 83.667969 56.960938 84.214844 L 56.960938 82.082031 C 56.960938 81.535156 57.171875 80.988281 57.589844 80.570312 C 58.011719 80.15625 58.5625 79.949219 59.113281 79.949219 C 59.660156 79.949219 60.210938 80.15625 60.632812 80.570312 C 61.050781 80.988281 61.261719 81.535156 61.261719 82.082031 L 61.261719 84.214844 C 61.261719 83.667969 61.472656 83.121094 61.890625 82.703125 C 62.3125 82.289062 62.863281 82.082031 63.414062 82.082031 C 63.960938 82.082031 64.511719 82.289062 64.933594 82.703125 C 65.351562 83.121094 65.5625 83.667969 65.5625 84.214844 L 65.5625 93.542969 L 65.585938 93.546875 C 65.644531 93.09375 65.839844 92.652344 66.191406 92.300781 C 66.613281 91.886719 67.164062 91.679688 67.714844 91.679688 C 68.261719 91.679688 68.8125 91.886719 69.234375 92.300781 C 69.652344 92.71875 69.863281 93.265625 69.863281 93.8125 L 69.863281 99.167969 C 69.863281 103.410156 64.488281 108.742188 64.488281 108.742188 L 64.488281 111.941406 L 51.585938 111.941406 L 51.585938 108.742188 L 48.359375 100.210938 L 48.359375 86.347656 C 48.359375 85.800781 48.570312 85.253906 48.988281 84.835938 Z M 48.988281 84.835938 "/>
<path style="fill:none;stroke-width:2;stroke-linecap:butt;stroke-linejoin:round;stroke:rgb(20.388794%,18.818665%,23.919678%);stroke-opacity:1;stroke-miterlimit:10;" d="M 18.999797 39.001761 L 18.999797 31.001761 C 18.999797 30.48894 19.195983 29.97612 19.584724 29.584178 C 19.977097 29.1959 20.489363 29.001761 21.001628 29.001761 C 21.51026 29.001761 22.022525 29.1959 22.414899 29.584178 C 22.803639 29.97612 22.999826 30.48894 22.999826 31.001761 L 22.999826 44.001761 " transform="matrix(1.075187,0,0,1.066406,40.833376,51.154374)"/>
<path style="fill:none;stroke-width:2;stroke-linecap:butt;stroke-linejoin:round;stroke:rgb(20.388794%,18.818665%,23.919678%);stroke-opacity:1;stroke-miterlimit:10;" d="M 14.999767 39.001761 L 14.999767 29.001761 C 14.999767 28.48894 15.195954 27.976119 15.584695 27.584178 C 15.977068 27.1959 16.489333 27.00176 17.001599 27.00176 C 17.510231 27.00176 18.022496 27.1959 18.41487 27.584178 C 18.80361 27.976119 18.999797 28.48894 18.999797 29.001761 L 18.999797 39.001761 " transform="matrix(1.075187,0,0,1.066406,40.833376,51.154374)"/>
<path style="fill:none;stroke-width:2;stroke-linecap:butt;stroke-linejoin:round;stroke:rgb(20.388794%,18.818665%,23.919678%);stroke-opacity:1;stroke-miterlimit:10;" d="M 10.999738 39.001761 L 10.999738 31.001761 C 10.999738 30.48894 11.195925 29.97612 11.584665 29.584178 C 11.977039 29.1959 12.489304 29.001761 13.001569 29.001761 C 13.510202 29.001761 14.022467 29.1959 14.41484 29.584178 C 14.803581 29.97612 14.999767 30.48894 14.999767 31.001761 L 14.999767 39.001761 " transform="matrix(1.075187,0,0,1.066406,40.833376,51.154374)"/>
<path style="fill:none;stroke-width:2;stroke-linecap:butt;stroke-linejoin:round;stroke:rgb(20.388794%,18.818665%,23.919678%);stroke-opacity:1;stroke-miterlimit:10;" d="M 10.000639 57.001762 L 10.000639 54.001762 L 6.999709 46.001761 L 6.999709 33.001761 C 6.999709 32.48894 7.195896 31.97612 7.584636 31.584178 C 7.97701 31.1959 8.489275 31.001761 9.00154 31.001761 C 9.513805 31.001761 10.022438 31.1959 10.414811 31.584178 C 10.803552 31.97612 10.999738 32.48894 10.999738 33.001761 L 10.999738 39.001761 " transform="matrix(1.075187,0,0,1.066406,40.833376,51.154374)"/>
<path style="fill:none;stroke-width:2;stroke-linecap:butt;stroke-linejoin:round;stroke:rgb(20.388794%,18.818665%,23.919678%);stroke-opacity:1;stroke-miterlimit:10;" d="M 22.999826 40.001761 C 22.999826 39.488941 23.196013 38.97612 23.584753 38.584179 C 23.977126 38.1959 24.489392 38.001761 25.001657 38.001761 C 25.510289 38.001761 26.022555 38.1959 26.414928 38.584179 C 26.803668 38.97612 26.999855 39.488941 26.999855 40.001761 L 26.999855 45.023739 C 26.999855 49.001762 22.000727 54.001762 22.000727 54.001762 L 22.000727 57.001762 " transform="matrix(1.075187,0,0,1.066406,40.833376,51.154374)"/>
<g clip-path="url(#clip3)" clip-rule="nonzero">
<path style="fill:none;stroke-width:2;stroke-linecap:butt;stroke-linejoin:round;stroke:rgb(20.388794%,18.818665%,23.919678%);stroke-opacity:1;stroke-miterlimit:10;" d="M 9.00154 64.001762 L 9.00154 58.001762 C 9.00154 57.745352 9.099634 57.488941 9.292187 57.294802 C 9.488374 57.097 9.74269 57.001762 10.000639 57.001762 L 22.000727 57.001762 C 22.255043 57.001762 22.512992 57.097 22.705546 57.294802 C 22.901733 57.488941 22.999826 57.745352 22.999826 58.001762 L 22.999826 64.001762 " transform="matrix(1.075187,0,0,1.066406,40.833376,51.154374)"/>
</g>
<path style="fill:none;stroke-width:2;stroke-linecap:butt;stroke-linejoin:round;stroke:rgb(20.388794%,18.818665%,23.919678%);stroke-opacity:1;stroke-miterlimit:10;" d="M 19.998896 61.001762 L 18.000698 61.001762 " transform="matrix(1.075187,0,0,1.066406,40.833376,51.154374)"/>
<g clip-path="url(#clip4)" clip-rule="nonzero">
<path style="fill:none;stroke-width:2;stroke-linecap:butt;stroke-linejoin:round;stroke:rgb(20.388794%,18.818665%,23.919678%);stroke-opacity:1;stroke-miterlimit:10;" d="M 38.000844 0.00175898 L 38.000844 1.001759 C 38.000844 1.510917 37.804657 2.023737 37.412284 2.415679 C 37.023543 2.803957 36.511278 3.001759 35.999013 3.001759 L 23.998925 3.001759 C 23.48666 3.001759 22.978027 3.195898 22.585654 3.584177 C 22.193281 3.976118 22.000727 4.488939 22.000727 5.001759 C 22.000727 5.510917 22.193281 6.023737 22.585654 6.415679 C 22.978027 6.803957 23.48666 7.001759 23.998925 7.001759 L 30.000785 7.001759 C 30.513051 7.001759 31.021683 7.195899 31.414056 7.584177 C 31.80643 7.976118 31.998983 8.488939 31.998983 9.001759 L 31.998983 11.00176 " transform="matrix(1.075187,0,0,1.066406,40.833376,51.154374)"/>
</g>
</g>
</svg>
