<?xml version="1.0" encoding="UTF-8"?>
<svg xmlns="http://www.w3.org/2000/svg" xmlns:xlink="http://www.w3.org/1999/xlink" width="150pt" height="149.999998pt" viewBox="0 0 150 149.999998" version="1.2">
<defs>
<clipPath id="clip1">
  <path d="M 49 116 L 101 116 L 101 119.261719 L 49 119.261719 Z M 49 116 "/>
</clipPath>
<clipPath id="clip2">
  <path d="M 44 51.761719 L 53 51.761719 L 53 62 L 44 62 Z M 44 51.761719 "/>
</clipPath>
<clipPath id="clip3">
  <path d="M 59 51.761719 L 69 51.761719 L 69 62 L 59 62 Z M 59 51.761719 "/>
</clipPath>
<clipPath id="clip4">
  <path d="M 75 51.761719 L 84 51.761719 L 84 62 L 75 62 Z M 75 51.761719 "/>
</clipPath>
<clipPath id="clip5">
  <path d="M 90 51.761719 L 100 51.761719 L 100 62 L 90 62 Z M 90 51.761719 "/>
</clipPath>
<clipPath id="clip6">
  <path d="M 36.585938 67 L 113.085938 67 L 113.085938 115 L 36.585938 115 Z M 36.585938 67 "/>
</clipPath>
</defs>
<g id="surface1">
<path style=" stroke:none;fill-rule:nonzero;fill:rgb(81.17981%,84.709167%,86.268616%);fill-opacity:1;" d="M 150 150 L 0 150 L 0 4.167969 C 0 1.667969 1.667969 0 4.167969 0 L 145.832031 0 C 148.332031 0 150 1.667969 150 4.167969 Z M 150 150 "/>
<path style=" stroke:none;fill-rule:nonzero;fill:rgb(13.328552%,18.818665%,23.529053%);fill-opacity:1;" d="M 8.332031 29.167969 L 141.667969 29.167969 L 141.667969 141.667969 L 8.332031 141.667969 Z M 8.332031 29.167969 "/>
<path style=" stroke:none;fill-rule:nonzero;fill:rgb(0%,70.588684%,100%);fill-opacity:1;" d="M 39.582031 85 L 54.167969 93.75 L 54.167969 104.167969 L 29.167969 88.75 L 29.167969 80 L 54.167969 66.667969 L 54.167969 77.082031 Z M 39.582031 85 "/>
<path style=" stroke:none;fill-rule:nonzero;fill:rgb(0%,70.588684%,100%);fill-opacity:1;" d="M 70.832031 112.5 L 62.5 112.5 L 79.167969 54.167969 L 87.5 54.167969 Z M 70.832031 112.5 "/>
<path style=" stroke:none;fill-rule:nonzero;fill:rgb(0%,70.588684%,100%);fill-opacity:1;" d="M 110.417969 85.417969 L 95.832031 77.082031 L 95.832031 66.667969 L 120.832031 80.832031 L 120.832031 89.582031 L 95.832031 104.167969 L 95.832031 93.75 Z M 110.417969 85.417969 "/>
<path style=" stroke:none;fill-rule:nonzero;fill:rgb(100%,100%,100%);fill-opacity:1;" d="M 37.5 14.582031 C 37.5 14.992188 37.460938 15.398438 37.378906 15.800781 C 37.300781 16.207031 37.179688 16.597656 37.023438 16.976562 C 36.867188 17.355469 36.675781 17.714844 36.445312 18.054688 C 36.21875 18.398438 35.960938 18.710938 35.667969 19.003906 C 35.378906 19.292969 35.0625 19.550781 34.722656 19.78125 C 34.382812 20.007812 34.019531 20.199219 33.640625 20.359375 C 33.261719 20.515625 32.871094 20.632812 32.46875 20.714844 C 32.066406 20.792969 31.660156 20.832031 31.25 20.832031 C 30.839844 20.832031 30.433594 20.792969 30.03125 20.714844 C 29.628906 20.632812 29.238281 20.515625 28.859375 20.359375 C 28.480469 20.199219 28.117188 20.007812 27.777344 19.78125 C 27.4375 19.550781 27.121094 19.292969 26.832031 19.003906 C 26.539062 18.710938 26.28125 18.398438 26.054688 18.054688 C 25.824219 17.714844 25.632812 17.355469 25.476562 16.976562 C 25.320312 16.597656 25.199219 16.207031 25.121094 15.800781 C 25.039062 15.398438 25 14.992188 25 14.582031 C 25 14.171875 25.039062 13.765625 25.121094 13.363281 C 25.199219 12.960938 25.320312 12.570312 25.476562 12.191406 C 25.632812 11.8125 25.824219 11.453125 26.054688 11.109375 C 26.28125 10.769531 26.539062 10.453125 26.832031 10.164062 C 27.121094 9.875 27.4375 9.613281 27.777344 9.386719 C 28.117188 9.160156 28.480469 8.964844 28.859375 8.808594 C 29.238281 8.652344 29.628906 8.535156 30.03125 8.453125 C 30.433594 8.375 30.839844 8.332031 31.25 8.332031 C 31.660156 8.332031 32.066406 8.375 32.46875 8.453125 C 32.871094 8.535156 33.261719 8.652344 33.640625 8.808594 C 34.019531 8.964844 34.382812 9.160156 34.722656 9.386719 C 35.0625 9.613281 35.378906 9.875 35.667969 10.164062 C 35.960938 10.453125 36.21875 10.769531 36.445312 11.109375 C 36.675781 11.453125 36.867188 11.8125 37.023438 12.191406 C 37.179688 12.570312 37.300781 12.960938 37.378906 13.363281 C 37.460938 13.765625 37.5 14.171875 37.5 14.582031 Z M 37.5 14.582031 "/>
<path style=" stroke:none;fill-rule:nonzero;fill:rgb(100%,100%,100%);fill-opacity:1;" d="M 20.832031 14.582031 C 20.832031 14.992188 20.792969 15.398438 20.714844 15.800781 C 20.632812 16.207031 20.515625 16.597656 20.359375 16.976562 C 20.199219 17.355469 20.007812 17.714844 19.78125 18.054688 C 19.550781 18.398438 19.292969 18.710938 19.003906 19.003906 C 18.710938 19.292969 18.398438 19.550781 18.054688 19.78125 C 17.714844 20.007812 17.355469 20.199219 16.976562 20.359375 C 16.597656 20.515625 16.207031 20.632812 15.800781 20.714844 C 15.398438 20.792969 14.992188 20.832031 14.582031 20.832031 C 14.171875 20.832031 13.765625 20.792969 13.363281 20.714844 C 12.960938 20.632812 12.570312 20.515625 12.191406 20.359375 C 11.8125 20.199219 11.453125 20.007812 11.109375 19.78125 C 10.769531 19.550781 10.453125 19.292969 10.164062 19.003906 C 9.875 18.710938 9.613281 18.398438 9.386719 18.054688 C 9.160156 17.714844 8.964844 17.355469 8.808594 16.976562 C 8.652344 16.597656 8.535156 16.207031 8.453125 15.800781 C 8.375 15.398438 8.332031 14.992188 8.332031 14.582031 C 8.332031 14.171875 8.375 13.765625 8.453125 13.363281 C 8.535156 12.960938 8.652344 12.570312 8.808594 12.191406 C 8.964844 11.8125 9.160156 11.453125 9.386719 11.109375 C 9.613281 10.769531 9.875 10.453125 10.164062 10.164062 C 10.453125 9.875 10.769531 9.613281 11.109375 9.386719 C 11.453125 9.160156 11.8125 8.964844 12.191406 8.808594 C 12.570312 8.652344 12.960938 8.535156 13.363281 8.453125 C 13.765625 8.375 14.171875 8.332031 14.582031 8.332031 C 14.992188 8.332031 15.398438 8.375 15.800781 8.453125 C 16.207031 8.535156 16.597656 8.652344 16.976562 8.808594 C 17.355469 8.964844 17.714844 9.160156 18.054688 9.386719 C 18.398438 9.613281 18.710938 9.875 19.003906 10.164062 C 19.292969 10.453125 19.550781 10.769531 19.78125 11.109375 C 20.007812 11.453125 20.199219 11.8125 20.359375 12.191406 C 20.515625 12.570312 20.632812 12.960938 20.714844 13.363281 C 20.792969 13.765625 20.832031 14.171875 20.832031 14.582031 Z M 20.832031 14.582031 "/>
<path style=" stroke:none;fill-rule:nonzero;fill:rgb(13.328552%,18.818665%,23.529053%);fill-opacity:1;" d="M 8.664062 29.527344 L 141.335938 29.527344 L 141.335938 141.449219 L 8.664062 141.449219 Z M 8.664062 29.527344 "/>
<g clip-path="url(#clip1)" clip-rule="nonzero">
<path style=" stroke:none;fill-rule:nonzero;fill:rgb(0%,70.588684%,100%);fill-opacity:1;" d="M 100.507812 118.058594 C 100.507812 117.398438 99.972656 116.855469 99.316406 116.855469 L 50.355469 116.855469 C 49.699219 116.855469 49.160156 117.398438 49.160156 118.058594 C 49.160156 118.722656 49.699219 119.261719 50.355469 119.261719 L 99.316406 119.261719 C 99.972656 119.261719 100.507812 118.722656 100.507812 118.058594 Z M 100.507812 118.058594 "/>
</g>
<g clip-path="url(#clip2)" clip-rule="nonzero">
<path style=" stroke:none;fill-rule:nonzero;fill:rgb(0%,70.588684%,100%);fill-opacity:1;" d="M 52.742188 55.4375 C 52.742188 53.449219 51.128906 51.824219 49.160156 51.824219 L 47.964844 51.824219 C 45.996094 51.824219 44.382812 53.449219 44.382812 55.4375 L 44.382812 57.84375 C 44.382812 59.832031 45.996094 61.457031 47.964844 61.457031 L 49.160156 61.457031 C 51.128906 61.457031 52.742188 59.832031 52.742188 57.84375 Z M 50.355469 57.84375 C 50.355469 58.507812 49.816406 59.050781 49.160156 59.050781 L 47.964844 59.050781 C 47.308594 59.050781 46.773438 58.507812 46.773438 57.84375 L 46.773438 55.4375 C 46.773438 54.773438 47.308594 54.234375 47.964844 54.234375 L 49.160156 54.234375 C 49.816406 54.234375 50.355469 54.773438 50.355469 55.4375 Z M 50.355469 57.84375 "/>
</g>
<path style=" stroke:none;fill-rule:nonzero;fill:rgb(0%,70.588684%,100%);fill-opacity:1;" d="M 57.519531 53.628906 C 57.519531 52.96875 56.980469 52.425781 56.324219 52.425781 C 55.667969 52.425781 55.132812 52.96875 55.132812 53.628906 L 55.132812 59.652344 C 55.132812 60.3125 55.667969 60.855469 56.324219 60.855469 C 56.980469 60.855469 57.519531 60.3125 57.519531 59.652344 Z M 57.519531 53.628906 "/>
<g clip-path="url(#clip3)" clip-rule="nonzero">
<path style=" stroke:none;fill-rule:nonzero;fill:rgb(0%,70.588684%,100%);fill-opacity:1;" d="M 68.265625 55.4375 C 68.265625 53.449219 66.65625 51.824219 64.683594 51.824219 L 63.488281 51.824219 C 61.519531 51.824219 59.90625 53.449219 59.90625 55.4375 L 59.90625 57.84375 C 59.90625 59.832031 61.519531 61.457031 63.488281 61.457031 L 64.683594 61.457031 C 66.65625 61.457031 68.265625 59.832031 68.265625 57.84375 Z M 65.878906 57.84375 C 65.878906 58.507812 65.339844 59.050781 64.683594 59.050781 L 63.488281 59.050781 C 62.832031 59.050781 62.296875 58.507812 62.296875 57.84375 L 62.296875 55.4375 C 62.296875 54.773438 62.832031 54.234375 63.488281 54.234375 L 64.683594 54.234375 C 65.339844 54.234375 65.878906 54.773438 65.878906 55.4375 Z M 65.878906 57.84375 "/>
</g>
<path style=" stroke:none;fill-rule:nonzero;fill:rgb(0%,70.588684%,100%);fill-opacity:1;" d="M 73.042969 53.628906 C 73.042969 52.96875 72.507812 52.425781 71.847656 52.425781 C 71.191406 52.425781 70.65625 52.96875 70.65625 53.628906 L 70.65625 59.652344 C 70.65625 60.3125 71.191406 60.855469 71.847656 60.855469 C 72.507812 60.855469 73.042969 60.3125 73.042969 59.652344 Z M 73.042969 53.628906 "/>
<g clip-path="url(#clip4)" clip-rule="nonzero">
<path style=" stroke:none;fill-rule:nonzero;fill:rgb(0%,70.588684%,100%);fill-opacity:1;" d="M 83.789062 55.4375 C 83.789062 53.449219 82.179688 51.824219 80.207031 51.824219 L 79.015625 51.824219 C 77.042969 51.824219 75.429688 53.449219 75.429688 55.4375 L 75.429688 57.84375 C 75.429688 59.832031 77.042969 61.457031 79.015625 61.457031 L 80.207031 61.457031 C 82.179688 61.457031 83.789062 59.832031 83.789062 57.84375 Z M 81.402344 57.84375 C 81.402344 58.507812 80.863281 59.050781 80.207031 59.050781 L 79.015625 59.050781 C 78.355469 59.050781 77.820312 58.507812 77.820312 57.84375 L 77.820312 55.4375 C 77.820312 54.773438 78.355469 54.234375 79.015625 54.234375 L 80.207031 54.234375 C 80.863281 54.234375 81.402344 54.773438 81.402344 55.4375 Z M 81.402344 57.84375 "/>
</g>
<path style=" stroke:none;fill-rule:nonzero;fill:rgb(0%,70.588684%,100%);fill-opacity:1;" d="M 87.375 60.796875 C 88.03125 60.796875 88.566406 60.253906 88.566406 59.589844 L 88.566406 53.628906 C 88.566406 52.96875 88.03125 52.425781 87.375 52.425781 C 86.714844 52.425781 86.179688 52.96875 86.179688 53.628906 L 86.179688 59.652344 C 86.179688 60.253906 86.714844 60.796875 87.375 60.796875 Z M 87.375 60.796875 "/>
<g clip-path="url(#clip5)" clip-rule="nonzero">
<path style=" stroke:none;fill-rule:nonzero;fill:rgb(0%,70.588684%,100%);fill-opacity:1;" d="M 94.539062 61.398438 L 95.730469 61.398438 C 97.703125 61.398438 99.316406 59.773438 99.316406 57.785156 L 99.316406 55.375 C 99.316406 53.390625 97.703125 51.761719 95.730469 51.761719 L 94.539062 51.761719 C 92.566406 51.761719 90.957031 53.390625 90.957031 55.375 L 90.957031 57.785156 C 90.957031 59.773438 92.566406 61.398438 94.539062 61.398438 Z M 93.34375 55.4375 C 93.34375 54.773438 93.882812 54.234375 94.539062 54.234375 L 95.730469 54.234375 C 96.390625 54.234375 96.925781 54.773438 96.925781 55.4375 L 96.925781 57.84375 C 96.925781 58.507812 96.390625 59.050781 95.730469 59.050781 L 94.539062 59.050781 C 93.882812 59.050781 93.34375 58.507812 93.34375 57.84375 Z M 93.34375 55.4375 "/>
</g>
<path style=" stroke:none;fill-rule:nonzero;fill:rgb(0%,70.588684%,100%);fill-opacity:1;" d="M 102.898438 60.796875 C 103.554688 60.796875 104.089844 60.253906 104.089844 59.589844 L 104.089844 53.628906 C 104.089844 52.96875 103.554688 52.425781 102.898438 52.425781 C 102.238281 52.425781 101.703125 52.96875 101.703125 53.628906 L 101.703125 59.652344 C 101.703125 60.253906 102.238281 60.796875 102.898438 60.796875 Z M 102.898438 60.796875 "/>
<path style=" stroke:none;fill-rule:nonzero;fill:rgb(0%,70.588684%,100%);fill-opacity:1;" d="M 52.742188 67.417969 C 52.742188 65.433594 51.128906 63.804688 49.160156 63.804688 L 47.964844 63.804688 C 45.996094 63.804688 44.382812 65.433594 44.382812 67.417969 L 44.382812 69.828125 C 44.382812 71.816406 45.996094 73.441406 47.964844 73.441406 L 49.160156 73.441406 C 51.128906 73.441406 52.742188 71.816406 52.742188 69.828125 Z M 50.355469 69.828125 C 50.355469 70.488281 49.816406 71.03125 49.160156 71.03125 L 47.964844 71.03125 C 47.308594 71.03125 46.773438 70.488281 46.773438 69.828125 L 46.773438 67.417969 C 46.773438 66.757812 47.308594 66.214844 47.964844 66.214844 L 49.160156 66.214844 C 49.816406 66.214844 50.355469 66.757812 50.355469 67.417969 Z M 50.355469 69.828125 "/>
<path style=" stroke:none;fill-rule:nonzero;fill:rgb(0%,70.588684%,100%);fill-opacity:1;" d="M 57.519531 65.613281 C 57.519531 64.949219 56.980469 64.410156 56.324219 64.410156 C 55.667969 64.410156 55.132812 64.949219 55.132812 65.613281 L 55.132812 71.632812 C 55.132812 72.296875 55.667969 72.839844 56.324219 72.839844 C 56.980469 72.839844 57.519531 72.296875 57.519531 71.632812 Z M 57.519531 65.613281 "/>
<path style=" stroke:none;fill-rule:nonzero;fill:rgb(0%,70.588684%,100%);fill-opacity:1;" d="M 68.265625 67.417969 C 68.265625 65.433594 66.65625 63.804688 64.683594 63.804688 L 63.488281 63.804688 C 61.519531 63.804688 59.90625 65.433594 59.90625 67.417969 L 59.90625 69.828125 C 59.90625 71.816406 61.519531 73.441406 63.488281 73.441406 L 64.683594 73.441406 C 66.65625 73.441406 68.265625 71.816406 68.265625 69.828125 Z M 65.878906 69.828125 C 65.878906 70.488281 65.339844 71.03125 64.683594 71.03125 L 63.488281 71.03125 C 62.832031 71.03125 62.296875 70.488281 62.296875 69.828125 L 62.296875 67.417969 C 62.296875 66.757812 62.832031 66.214844 63.488281 66.214844 L 64.683594 66.214844 C 65.339844 66.214844 65.878906 66.757812 65.878906 67.417969 Z M 65.878906 69.828125 "/>
<path style=" stroke:none;fill-rule:nonzero;fill:rgb(0%,70.588684%,100%);fill-opacity:1;" d="M 73.042969 65.613281 C 73.042969 64.949219 72.507812 64.410156 71.847656 64.410156 C 71.191406 64.410156 70.65625 64.949219 70.65625 65.613281 L 70.65625 71.632812 C 70.65625 72.296875 71.191406 72.839844 71.847656 72.839844 C 72.507812 72.839844 73.042969 72.296875 73.042969 71.632812 Z M 73.042969 65.613281 "/>
<path style=" stroke:none;fill-rule:nonzero;fill:rgb(0%,70.588684%,100%);fill-opacity:1;" d="M 83.789062 67.417969 C 83.789062 65.433594 82.179688 63.804688 80.207031 63.804688 L 79.015625 63.804688 C 77.042969 63.804688 75.429688 65.433594 75.429688 67.417969 L 75.429688 69.828125 C 75.429688 71.816406 77.042969 73.441406 79.015625 73.441406 L 80.207031 73.441406 C 82.179688 73.441406 83.789062 71.816406 83.789062 69.828125 Z M 81.402344 69.828125 C 81.402344 70.488281 80.863281 71.03125 80.207031 71.03125 L 79.015625 71.03125 C 78.355469 71.03125 77.820312 70.488281 77.820312 69.828125 L 77.820312 67.417969 C 77.820312 66.757812 78.355469 66.214844 79.015625 66.214844 L 80.207031 66.214844 C 80.863281 66.214844 81.402344 66.757812 81.402344 67.417969 Z M 81.402344 69.828125 "/>
<path style=" stroke:none;fill-rule:nonzero;fill:rgb(0%,70.588684%,100%);fill-opacity:1;" d="M 86.179688 71.632812 C 86.179688 72.296875 86.714844 72.839844 87.375 72.839844 C 88.03125 72.839844 88.566406 72.296875 88.566406 71.632812 L 88.566406 65.613281 C 88.566406 64.949219 88.03125 64.410156 87.375 64.410156 C 86.714844 64.410156 86.179688 64.949219 86.179688 65.613281 Z M 86.179688 71.632812 "/>
<path style=" stroke:none;fill-rule:nonzero;fill:rgb(0%,70.588684%,100%);fill-opacity:1;" d="M 90.957031 69.828125 C 90.957031 71.816406 92.566406 73.441406 94.539062 73.441406 L 95.730469 73.441406 C 97.703125 73.441406 99.316406 71.816406 99.316406 69.828125 L 99.316406 67.417969 C 99.316406 65.433594 97.703125 63.804688 95.730469 63.804688 L 94.539062 63.804688 C 92.566406 63.804688 90.957031 65.433594 90.957031 67.417969 Z M 93.34375 67.417969 C 93.34375 66.757812 93.882812 66.214844 94.539062 66.214844 L 95.730469 66.214844 C 96.390625 66.214844 96.925781 66.757812 96.925781 67.417969 L 96.925781 69.828125 C 96.925781 70.488281 96.390625 71.03125 95.730469 71.03125 L 94.539062 71.03125 C 93.882812 71.03125 93.34375 70.488281 93.34375 69.828125 Z M 93.34375 67.417969 "/>
<g clip-path="url(#clip6)" clip-rule="nonzero">
<path style=" stroke:none;fill-rule:nonzero;fill:rgb(0%,70.588684%,100%);fill-opacity:1;" d="M 106.480469 67.71875 L 106.480469 70.128906 C 108.808594 70.429688 110.660156 72.417969 110.660156 74.886719 L 110.660156 107.28125 C 110.660156 109.929688 108.507812 112.097656 105.882812 112.097656 L 43.785156 112.097656 C 41.160156 112.097656 39.011719 109.929688 39.011719 107.28125 L 39.011719 74.886719 C 39.011719 72.839844 40.265625 71.152344 42.054688 70.429688 C 41.996094 70.25 41.996094 70.007812 41.996094 69.828125 L 41.996094 67.960938 C 38.890625 68.742188 36.621094 71.574219 36.621094 74.945312 L 36.621094 107.339844 C 36.621094 111.316406 39.847656 114.507812 43.785156 114.507812 L 105.882812 114.507812 C 109.824219 114.507812 113.046875 111.253906 113.046875 107.339844 L 113.046875 74.886719 C 113.046875 71.152344 110.121094 68.019531 106.480469 67.71875 Z M 106.480469 67.71875 "/>
</g>
<path style=" stroke:none;fill-rule:nonzero;fill:rgb(0%,70.588684%,100%);fill-opacity:1;" d="M 101.703125 71.632812 C 101.703125 72.296875 102.238281 72.839844 102.898438 72.839844 C 103.554688 72.839844 104.089844 72.296875 104.089844 71.632812 L 104.089844 65.613281 C 104.089844 64.949219 103.554688 64.410156 102.898438 64.410156 C 102.238281 64.410156 101.703125 64.949219 101.703125 65.613281 Z M 101.703125 71.632812 "/>
<path style=" stroke:none;fill-rule:nonzero;fill:rgb(0%,70.588684%,100%);fill-opacity:1;" d="M 52.742188 79.402344 C 52.742188 77.414062 51.128906 75.789062 49.160156 75.789062 L 47.964844 75.789062 C 45.996094 75.789062 44.382812 77.414062 44.382812 79.402344 L 44.382812 81.808594 C 44.382812 83.796875 45.996094 85.421875 47.964844 85.421875 L 49.160156 85.421875 C 51.128906 85.421875 52.742188 83.796875 52.742188 81.808594 Z M 50.355469 81.808594 C 50.355469 82.472656 49.816406 83.015625 49.160156 83.015625 L 47.964844 83.015625 C 47.308594 83.015625 46.773438 82.472656 46.773438 81.808594 L 46.773438 79.402344 C 46.773438 78.738281 47.308594 78.199219 47.964844 78.199219 L 49.160156 78.199219 C 49.816406 78.199219 50.355469 78.738281 50.355469 79.402344 Z M 50.355469 81.808594 "/>
<path style=" stroke:none;fill-rule:nonzero;fill:rgb(0%,70.588684%,100%);fill-opacity:1;" d="M 57.519531 77.59375 C 57.519531 76.933594 56.980469 76.390625 56.324219 76.390625 C 55.667969 76.390625 55.132812 76.933594 55.132812 77.59375 L 55.132812 83.617188 C 55.132812 84.277344 55.667969 84.820312 56.324219 84.820312 C 56.980469 84.820312 57.519531 84.277344 57.519531 83.617188 Z M 57.519531 77.59375 "/>
<path style=" stroke:none;fill-rule:nonzero;fill:rgb(0%,70.588684%,100%);fill-opacity:1;" d="M 68.265625 79.402344 C 68.265625 77.414062 66.65625 75.789062 64.683594 75.789062 L 63.488281 75.789062 C 61.519531 75.789062 59.90625 77.414062 59.90625 79.402344 L 59.90625 81.808594 C 59.90625 83.796875 61.519531 85.421875 63.488281 85.421875 L 64.683594 85.421875 C 66.65625 85.421875 68.265625 83.796875 68.265625 81.808594 Z M 65.878906 81.808594 C 65.878906 82.472656 65.339844 83.015625 64.683594 83.015625 L 63.488281 83.015625 C 62.832031 83.015625 62.296875 82.472656 62.296875 81.808594 L 62.296875 79.402344 C 62.296875 78.738281 62.832031 78.199219 63.488281 78.199219 L 64.683594 78.199219 C 65.339844 78.199219 65.878906 78.738281 65.878906 79.402344 Z M 65.878906 81.808594 "/>
<path style=" stroke:none;fill-rule:nonzero;fill:rgb(0%,70.588684%,100%);fill-opacity:1;" d="M 73.042969 77.59375 C 73.042969 76.933594 72.507812 76.390625 71.847656 76.390625 C 71.191406 76.390625 70.65625 76.933594 70.65625 77.59375 L 70.65625 83.617188 C 70.65625 84.277344 71.191406 84.820312 71.847656 84.820312 C 72.507812 84.820312 73.042969 84.277344 73.042969 83.617188 Z M 73.042969 77.59375 "/>
<path style=" stroke:none;fill-rule:nonzero;fill:rgb(0%,70.588684%,100%);fill-opacity:1;" d="M 83.789062 79.402344 C 83.789062 77.414062 82.179688 75.789062 80.207031 75.789062 L 79.015625 75.789062 C 77.042969 75.789062 75.429688 77.414062 75.429688 79.402344 L 75.429688 81.808594 C 75.429688 83.796875 77.042969 85.421875 79.015625 85.421875 L 80.207031 85.421875 C 82.179688 85.421875 83.789062 83.796875 83.789062 81.808594 Z M 81.402344 81.808594 C 81.402344 82.472656 80.863281 83.015625 80.207031 83.015625 L 79.015625 83.015625 C 78.355469 83.015625 77.820312 82.472656 77.820312 81.808594 L 77.820312 79.402344 C 77.820312 78.738281 78.355469 78.199219 79.015625 78.199219 L 80.207031 78.199219 C 80.863281 78.199219 81.402344 78.738281 81.402344 79.402344 Z M 81.402344 81.808594 "/>
<path style=" stroke:none;fill-rule:nonzero;fill:rgb(0%,70.588684%,100%);fill-opacity:1;" d="M 86.179688 83.617188 C 86.179688 84.277344 86.714844 84.820312 87.375 84.820312 C 88.03125 84.820312 88.566406 84.277344 88.566406 83.617188 L 88.566406 77.59375 C 88.566406 76.933594 88.03125 76.390625 87.375 76.390625 C 86.714844 76.390625 86.179688 76.933594 86.179688 77.59375 Z M 86.179688 83.617188 "/>
<path style=" stroke:none;fill-rule:nonzero;fill:rgb(0%,70.588684%,100%);fill-opacity:1;" d="M 90.957031 81.808594 C 90.957031 83.796875 92.566406 85.421875 94.539062 85.421875 L 95.730469 85.421875 C 97.703125 85.421875 99.316406 83.796875 99.316406 81.808594 L 99.316406 79.402344 C 99.316406 77.414062 97.703125 75.789062 95.730469 75.789062 L 94.539062 75.789062 C 92.566406 75.789062 90.957031 77.414062 90.957031 79.402344 Z M 93.34375 79.402344 C 93.34375 78.738281 93.882812 78.199219 94.539062 78.199219 L 95.730469 78.199219 C 96.390625 78.199219 96.925781 78.738281 96.925781 79.402344 L 96.925781 81.808594 C 96.925781 82.472656 96.390625 83.015625 95.730469 83.015625 L 94.539062 83.015625 C 93.882812 83.015625 93.34375 82.472656 93.34375 81.808594 Z M 93.34375 79.402344 "/>
<path style=" stroke:none;fill-rule:nonzero;fill:rgb(0%,70.588684%,100%);fill-opacity:1;" d="M 101.703125 83.617188 C 101.703125 84.277344 102.238281 84.820312 102.898438 84.820312 C 103.554688 84.820312 104.089844 84.277344 104.089844 83.617188 L 104.089844 77.59375 C 104.089844 76.933594 103.554688 76.390625 102.898438 76.390625 C 102.238281 76.390625 101.703125 76.933594 101.703125 77.59375 Z M 101.703125 83.617188 "/>
<path style=" stroke:none;fill-rule:nonzero;fill:rgb(0%,70.588684%,100%);fill-opacity:1;" d="M 52.742188 91.382812 C 52.742188 89.398438 51.128906 87.773438 49.160156 87.773438 L 47.964844 87.773438 C 45.996094 87.773438 44.382812 89.398438 44.382812 91.382812 L 44.382812 93.792969 C 44.382812 95.78125 45.996094 97.40625 47.964844 97.40625 L 49.160156 97.40625 C 51.128906 97.40625 52.742188 95.78125 52.742188 93.792969 Z M 50.355469 93.792969 C 50.355469 94.457031 49.816406 94.996094 49.160156 94.996094 L 47.964844 94.996094 C 47.308594 94.996094 46.773438 94.457031 46.773438 93.792969 L 46.773438 91.382812 C 46.773438 90.722656 47.308594 90.179688 47.964844 90.179688 L 49.160156 90.179688 C 49.816406 90.179688 50.355469 90.722656 50.355469 91.382812 Z M 50.355469 93.792969 "/>
<path style=" stroke:none;fill-rule:nonzero;fill:rgb(0%,70.588684%,100%);fill-opacity:1;" d="M 57.519531 89.578125 C 57.519531 88.914062 56.980469 88.375 56.324219 88.375 C 55.667969 88.375 55.132812 88.914062 55.132812 89.578125 L 55.132812 95.597656 C 55.132812 96.261719 55.667969 96.804688 56.324219 96.804688 C 56.980469 96.804688 57.519531 96.261719 57.519531 95.597656 Z M 57.519531 89.578125 "/>
<path style=" stroke:none;fill-rule:nonzero;fill:rgb(0%,70.588684%,100%);fill-opacity:1;" d="M 68.265625 91.382812 C 68.265625 89.398438 66.65625 87.773438 64.683594 87.773438 L 63.488281 87.773438 C 61.519531 87.773438 59.90625 89.398438 59.90625 91.382812 L 59.90625 93.792969 C 59.90625 95.78125 61.519531 97.40625 63.488281 97.40625 L 64.683594 97.40625 C 66.65625 97.40625 68.265625 95.78125 68.265625 93.792969 Z M 65.878906 93.792969 C 65.878906 94.457031 65.339844 94.996094 64.683594 94.996094 L 63.488281 94.996094 C 62.832031 94.996094 62.296875 94.457031 62.296875 93.792969 L 62.296875 91.382812 C 62.296875 90.722656 62.832031 90.179688 63.488281 90.179688 L 64.683594 90.179688 C 65.339844 90.179688 65.878906 90.722656 65.878906 91.382812 Z M 65.878906 93.792969 "/>
<path style=" stroke:none;fill-rule:nonzero;fill:rgb(0%,70.588684%,100%);fill-opacity:1;" d="M 73.042969 89.578125 C 73.042969 88.914062 72.507812 88.375 71.847656 88.375 C 71.191406 88.375 70.65625 88.914062 70.65625 89.578125 L 70.65625 95.597656 C 70.65625 96.261719 71.191406 96.804688 71.847656 96.804688 C 72.507812 96.804688 73.042969 96.261719 73.042969 95.597656 Z M 73.042969 89.578125 "/>
<path style=" stroke:none;fill-rule:nonzero;fill:rgb(0%,70.588684%,100%);fill-opacity:1;" d="M 83.789062 91.382812 C 83.789062 89.398438 82.179688 87.773438 80.207031 87.773438 L 79.015625 87.773438 C 77.042969 87.773438 75.429688 89.398438 75.429688 91.382812 L 75.429688 93.792969 C 75.429688 95.78125 77.042969 97.40625 79.015625 97.40625 L 80.207031 97.40625 C 82.179688 97.40625 83.789062 95.78125 83.789062 93.792969 Z M 81.402344 93.792969 C 81.402344 94.457031 80.863281 94.996094 80.207031 94.996094 L 79.015625 94.996094 C 78.355469 94.996094 77.820312 94.457031 77.820312 93.792969 L 77.820312 91.382812 C 77.820312 90.722656 78.355469 90.179688 79.015625 90.179688 L 80.207031 90.179688 C 80.863281 90.179688 81.402344 90.722656 81.402344 91.382812 Z M 81.402344 93.792969 "/>
<path style=" stroke:none;fill-rule:nonzero;fill:rgb(0%,70.588684%,100%);fill-opacity:1;" d="M 86.179688 95.597656 C 86.179688 96.261719 86.714844 96.804688 87.375 96.804688 C 88.03125 96.804688 88.566406 96.261719 88.566406 95.597656 L 88.566406 89.578125 C 88.566406 88.914062 88.03125 88.375 87.375 88.375 C 86.714844 88.375 86.179688 88.914062 86.179688 89.578125 Z M 86.179688 95.597656 "/>
<path style=" stroke:none;fill-rule:nonzero;fill:rgb(0%,70.588684%,100%);fill-opacity:1;" d="M 90.957031 93.792969 C 90.957031 95.78125 92.566406 97.40625 94.539062 97.40625 L 95.730469 97.40625 C 97.703125 97.40625 99.316406 95.78125 99.316406 93.792969 L 99.316406 91.382812 C 99.316406 89.398438 97.703125 87.773438 95.730469 87.773438 L 94.539062 87.773438 C 92.566406 87.773438 90.957031 89.398438 90.957031 91.382812 Z M 93.34375 91.382812 C 93.34375 90.722656 93.882812 90.179688 94.539062 90.179688 L 95.730469 90.179688 C 96.390625 90.179688 96.925781 90.722656 96.925781 91.382812 L 96.925781 93.792969 C 96.925781 94.457031 96.390625 94.996094 95.730469 94.996094 L 94.539062 94.996094 C 93.882812 94.996094 93.34375 94.457031 93.34375 93.792969 Z M 93.34375 91.382812 "/>
<path style=" stroke:none;fill-rule:nonzero;fill:rgb(0%,70.588684%,100%);fill-opacity:1;" d="M 101.703125 95.597656 C 101.703125 96.261719 102.238281 96.804688 102.898438 96.804688 C 103.554688 96.804688 104.089844 96.261719 104.089844 95.597656 L 104.089844 89.578125 C 104.089844 88.914062 103.554688 88.375 102.898438 88.375 C 102.238281 88.375 101.703125 88.914062 101.703125 89.578125 Z M 101.703125 95.597656 "/>
<path style=" stroke:none;fill-rule:nonzero;fill:rgb(0%,70.588684%,100%);fill-opacity:1;" d="M 49.160156 99.753906 L 47.964844 99.753906 C 45.996094 99.753906 44.382812 101.378906 44.382812 103.367188 L 44.382812 105.777344 C 44.382812 107.761719 45.996094 109.386719 47.964844 109.386719 L 49.160156 109.386719 C 51.128906 109.386719 52.742188 107.761719 52.742188 105.777344 L 52.742188 103.367188 C 52.742188 101.378906 51.128906 99.753906 49.160156 99.753906 Z M 50.355469 105.777344 C 50.355469 106.4375 49.816406 106.980469 49.160156 106.980469 L 47.964844 106.980469 C 47.308594 106.980469 46.773438 106.4375 46.773438 105.777344 L 46.773438 103.367188 C 46.773438 102.703125 47.308594 102.164062 47.964844 102.164062 L 49.160156 102.164062 C 49.816406 102.164062 50.355469 102.703125 50.355469 103.367188 Z M 50.355469 105.777344 "/>
<path style=" stroke:none;fill-rule:nonzero;fill:rgb(0%,70.588684%,100%);fill-opacity:1;" d="M 56.324219 100.355469 C 55.667969 100.355469 55.132812 100.898438 55.132812 101.5625 L 55.132812 107.582031 C 55.132812 108.246094 55.667969 108.785156 56.324219 108.785156 C 56.980469 108.785156 57.519531 108.246094 57.519531 107.582031 L 57.519531 101.5625 C 57.519531 100.898438 56.980469 100.355469 56.324219 100.355469 Z M 56.324219 100.355469 "/>
<path style=" stroke:none;fill-rule:nonzero;fill:rgb(0%,70.588684%,100%);fill-opacity:1;" d="M 64.683594 99.753906 L 63.488281 99.753906 C 61.519531 99.753906 59.90625 101.378906 59.90625 103.367188 L 59.90625 105.777344 C 59.90625 107.761719 61.519531 109.386719 63.488281 109.386719 L 64.683594 109.386719 C 66.65625 109.386719 68.265625 107.761719 68.265625 105.777344 L 68.265625 103.367188 C 68.265625 101.378906 66.65625 99.753906 64.683594 99.753906 Z M 65.878906 105.777344 C 65.878906 106.4375 65.339844 106.980469 64.683594 106.980469 L 63.488281 106.980469 C 62.832031 106.980469 62.296875 106.4375 62.296875 105.777344 L 62.296875 103.367188 C 62.296875 102.703125 62.832031 102.164062 63.488281 102.164062 L 64.683594 102.164062 C 65.339844 102.164062 65.878906 102.703125 65.878906 103.367188 Z M 65.878906 105.777344 "/>
<path style=" stroke:none;fill-rule:nonzero;fill:rgb(0%,70.588684%,100%);fill-opacity:1;" d="M 71.847656 100.355469 C 71.191406 100.355469 70.65625 100.898438 70.65625 101.5625 L 70.65625 107.582031 C 70.65625 108.246094 71.191406 108.785156 71.847656 108.785156 C 72.507812 108.785156 73.042969 108.246094 73.042969 107.582031 L 73.042969 101.5625 C 73.042969 100.898438 72.507812 100.355469 71.847656 100.355469 Z M 71.847656 100.355469 "/>
<path style=" stroke:none;fill-rule:nonzero;fill:rgb(0%,70.588684%,100%);fill-opacity:1;" d="M 80.207031 99.753906 L 79.015625 99.753906 C 77.042969 99.753906 75.429688 101.378906 75.429688 103.367188 L 75.429688 105.777344 C 75.429688 107.761719 77.042969 109.386719 79.015625 109.386719 L 80.207031 109.386719 C 82.179688 109.386719 83.789062 107.761719 83.789062 105.777344 L 83.789062 103.367188 C 83.789062 101.378906 82.179688 99.753906 80.207031 99.753906 Z M 81.402344 105.777344 C 81.402344 106.4375 80.863281 106.980469 80.207031 106.980469 L 79.015625 106.980469 C 78.355469 106.980469 77.820312 106.4375 77.820312 105.777344 L 77.820312 103.367188 C 77.820312 102.703125 78.355469 102.164062 79.015625 102.164062 L 80.207031 102.164062 C 80.863281 102.164062 81.402344 102.703125 81.402344 103.367188 Z M 81.402344 105.777344 "/>
<path style=" stroke:none;fill-rule:nonzero;fill:rgb(0%,70.588684%,100%);fill-opacity:1;" d="M 86.179688 107.582031 C 86.179688 108.246094 86.714844 108.785156 87.375 108.785156 C 88.03125 108.785156 88.566406 108.246094 88.566406 107.582031 L 88.566406 101.5625 C 88.566406 100.898438 88.03125 100.355469 87.375 100.355469 C 86.714844 100.355469 86.179688 100.898438 86.179688 101.5625 Z M 86.179688 107.582031 "/>
<path style=" stroke:none;fill-rule:nonzero;fill:rgb(0%,70.588684%,100%);fill-opacity:1;" d="M 90.957031 105.777344 C 90.957031 107.761719 92.566406 109.386719 94.539062 109.386719 L 95.730469 109.386719 C 97.703125 109.386719 99.316406 107.761719 99.316406 105.777344 L 99.316406 103.367188 C 99.316406 101.378906 97.703125 99.753906 95.730469 99.753906 L 94.539062 99.753906 C 92.566406 99.753906 90.957031 101.378906 90.957031 103.367188 Z M 93.34375 103.367188 C 93.34375 102.703125 93.882812 102.164062 94.539062 102.164062 L 95.730469 102.164062 C 96.390625 102.164062 96.925781 102.703125 96.925781 103.367188 L 96.925781 105.777344 C 96.925781 106.4375 96.390625 106.980469 95.730469 106.980469 L 94.539062 106.980469 C 93.882812 106.980469 93.34375 106.4375 93.34375 105.777344 Z M 93.34375 103.367188 "/>
<path style=" stroke:none;fill-rule:nonzero;fill:rgb(0%,70.588684%,100%);fill-opacity:1;" d="M 101.703125 107.582031 C 101.703125 108.246094 102.238281 108.785156 102.898438 108.785156 C 103.554688 108.785156 104.089844 108.246094 104.089844 107.582031 L 104.089844 101.5625 C 104.089844 100.898438 103.554688 100.355469 102.898438 100.355469 C 102.238281 100.355469 101.703125 100.898438 101.703125 101.5625 Z M 101.703125 107.582031 "/>
</g>
</svg>
