<?xml version="1.0" encoding="UTF-8"?>
<svg xmlns="http://www.w3.org/2000/svg" xmlns:xlink="http://www.w3.org/1999/xlink" width="150pt" height="149.999998pt" viewBox="0 0 150 149.999998" version="1.2">
<defs>
<clipPath id="clip1">
  <path d="M 22.5 63.523438 L 127.5 63.523438 L 127.5 107.023438 L 22.5 107.023438 Z M 22.5 63.523438 "/>
</clipPath>
</defs>
<g id="surface1">
<path style=" stroke:none;fill-rule:nonzero;fill:rgb(81.17981%,84.709167%,86.268616%);fill-opacity:1;" d="M 150 150 L 0 150 L 0 4.167969 C 0 1.667969 1.667969 0 4.167969 0 L 145.832031 0 C 148.332031 0 150 1.667969 150 4.167969 Z M 150 150 "/>
<path style=" stroke:none;fill-rule:nonzero;fill:rgb(13.328552%,18.818665%,23.529053%);fill-opacity:1;" d="M 8.332031 29.167969 L 141.667969 29.167969 L 141.667969 141.667969 L 8.332031 141.667969 Z M 8.332031 29.167969 "/>
<path style=" stroke:none;fill-rule:nonzero;fill:rgb(0%,70.588684%,100%);fill-opacity:1;" d="M 39.582031 85 L 54.167969 93.75 L 54.167969 104.167969 L 29.167969 88.75 L 29.167969 80 L 54.167969 66.667969 L 54.167969 77.082031 Z M 39.582031 85 "/>
<path style=" stroke:none;fill-rule:nonzero;fill:rgb(0%,70.588684%,100%);fill-opacity:1;" d="M 70.832031 112.5 L 62.5 112.5 L 79.167969 54.167969 L 87.5 54.167969 Z M 70.832031 112.5 "/>
<path style=" stroke:none;fill-rule:nonzero;fill:rgb(0%,70.588684%,100%);fill-opacity:1;" d="M 110.417969 85.417969 L 95.832031 77.082031 L 95.832031 66.667969 L 120.832031 80.832031 L 120.832031 89.582031 L 95.832031 104.167969 L 95.832031 93.75 Z M 110.417969 85.417969 "/>
<path style=" stroke:none;fill-rule:nonzero;fill:rgb(100%,100%,100%);fill-opacity:1;" d="M 37.5 14.582031 C 37.5 14.992188 37.460938 15.398438 37.378906 15.800781 C 37.300781 16.207031 37.179688 16.597656 37.023438 16.976562 C 36.867188 17.355469 36.675781 17.714844 36.445312 18.054688 C 36.21875 18.398438 35.960938 18.710938 35.667969 19.003906 C 35.378906 19.292969 35.0625 19.550781 34.722656 19.78125 C 34.382812 20.007812 34.019531 20.199219 33.640625 20.359375 C 33.261719 20.515625 32.871094 20.632812 32.46875 20.714844 C 32.066406 20.792969 31.660156 20.832031 31.25 20.832031 C 30.839844 20.832031 30.433594 20.792969 30.03125 20.714844 C 29.628906 20.632812 29.238281 20.515625 28.859375 20.359375 C 28.480469 20.199219 28.117188 20.007812 27.777344 19.78125 C 27.4375 19.550781 27.121094 19.292969 26.832031 19.003906 C 26.539062 18.710938 26.28125 18.398438 26.054688 18.054688 C 25.824219 17.714844 25.632812 17.355469 25.476562 16.976562 C 25.320312 16.597656 25.199219 16.207031 25.121094 15.800781 C 25.039062 15.398438 25 14.992188 25 14.582031 C 25 14.171875 25.039062 13.765625 25.121094 13.363281 C 25.199219 12.960938 25.320312 12.570312 25.476562 12.191406 C 25.632812 11.8125 25.824219 11.453125 26.054688 11.109375 C 26.28125 10.769531 26.539062 10.453125 26.832031 10.164062 C 27.121094 9.875 27.4375 9.613281 27.777344 9.386719 C 28.117188 9.160156 28.480469 8.964844 28.859375 8.808594 C 29.238281 8.652344 29.628906 8.535156 30.03125 8.453125 C 30.433594 8.375 30.839844 8.332031 31.25 8.332031 C 31.660156 8.332031 32.066406 8.375 32.46875 8.453125 C 32.871094 8.535156 33.261719 8.652344 33.640625 8.808594 C 34.019531 8.964844 34.382812 9.160156 34.722656 9.386719 C 35.0625 9.613281 35.378906 9.875 35.667969 10.164062 C 35.960938 10.453125 36.21875 10.769531 36.445312 11.109375 C 36.675781 11.453125 36.867188 11.8125 37.023438 12.191406 C 37.179688 12.570312 37.300781 12.960938 37.378906 13.363281 C 37.460938 13.765625 37.5 14.171875 37.5 14.582031 Z M 37.5 14.582031 "/>
<path style=" stroke:none;fill-rule:nonzero;fill:rgb(100%,100%,100%);fill-opacity:1;" d="M 20.832031 14.582031 C 20.832031 14.992188 20.792969 15.398438 20.714844 15.800781 C 20.632812 16.207031 20.515625 16.597656 20.359375 16.976562 C 20.199219 17.355469 20.007812 17.714844 19.78125 18.054688 C 19.550781 18.398438 19.292969 18.710938 19.003906 19.003906 C 18.710938 19.292969 18.398438 19.550781 18.054688 19.78125 C 17.714844 20.007812 17.355469 20.199219 16.976562 20.359375 C 16.597656 20.515625 16.207031 20.632812 15.800781 20.714844 C 15.398438 20.792969 14.992188 20.832031 14.582031 20.832031 C 14.171875 20.832031 13.765625 20.792969 13.363281 20.714844 C 12.960938 20.632812 12.570312 20.515625 12.191406 20.359375 C 11.8125 20.199219 11.453125 20.007812 11.109375 19.78125 C 10.769531 19.550781 10.453125 19.292969 10.164062 19.003906 C 9.875 18.710938 9.613281 18.398438 9.386719 18.054688 C 9.160156 17.714844 8.964844 17.355469 8.808594 16.976562 C 8.652344 16.597656 8.535156 16.207031 8.453125 15.800781 C 8.375 15.398438 8.332031 14.992188 8.332031 14.582031 C 8.332031 14.171875 8.375 13.765625 8.453125 13.363281 C 8.535156 12.960938 8.652344 12.570312 8.808594 12.191406 C 8.964844 11.8125 9.160156 11.453125 9.386719 11.109375 C 9.613281 10.769531 9.875 10.453125 10.164062 10.164062 C 10.453125 9.875 10.769531 9.613281 11.109375 9.386719 C 11.453125 9.160156 11.8125 8.964844 12.191406 8.808594 C 12.570312 8.652344 12.960938 8.535156 13.363281 8.453125 C 13.765625 8.375 14.171875 8.332031 14.582031 8.332031 C 14.992188 8.332031 15.398438 8.375 15.800781 8.453125 C 16.207031 8.535156 16.597656 8.652344 16.976562 8.808594 C 17.355469 8.964844 17.714844 9.160156 18.054688 9.386719 C 18.398438 9.613281 18.710938 9.875 19.003906 10.164062 C 19.292969 10.453125 19.550781 10.769531 19.78125 11.109375 C 20.007812 11.453125 20.199219 11.8125 20.359375 12.191406 C 20.515625 12.570312 20.632812 12.960938 20.714844 13.363281 C 20.792969 13.765625 20.832031 14.171875 20.832031 14.582031 Z M 20.832031 14.582031 "/>
<path style=" stroke:none;fill-rule:nonzero;fill:rgb(13.328552%,18.818665%,23.529053%);fill-opacity:1;" d="M 8.664062 29.527344 L 141.335938 29.527344 L 141.335938 141.449219 L 8.664062 141.449219 Z M 8.664062 29.527344 "/>
<g clip-path="url(#clip1)" clip-rule="nonzero">
<path style=" stroke:none;fill-rule:nonzero;fill:rgb(0%,70.588684%,100%);fill-opacity:1;" d="M 105.59375 63.523438 C 93.34375 63.523438 79.667969 77.007812 75 82.019531 C 70.335938 77.003906 56.660156 63.523438 44.410156 63.523438 C 30.726562 63.523438 22.558594 71.65625 22.558594 85.273438 C 22.558594 98.894531 30.726562 107.023438 44.410156 107.023438 C 56.660156 107.023438 70.335938 93.542969 75 88.53125 C 79.667969 93.542969 93.34375 107.023438 105.59375 107.023438 C 119.277344 107.023438 127.445312 98.894531 127.445312 85.273438 C 127.445312 71.65625 119.277344 63.523438 105.59375 63.523438 Z M 44.410156 102.675781 C 29.199219 102.675781 26.925781 91.773438 26.925781 85.273438 C 26.925781 78.777344 29.199219 67.875 44.410156 67.875 C 55.035156 67.875 68.011719 80.90625 72.066406 85.273438 C 68.015625 89.648438 55.046875 102.675781 44.410156 102.675781 Z M 105.59375 102.675781 C 94.96875 102.675781 81.988281 89.644531 77.9375 85.273438 C 81.988281 80.902344 94.953125 67.875 105.59375 67.875 C 120.804688 67.875 123.078125 78.777344 123.078125 85.273438 C 123.078125 91.773438 120.804688 102.675781 105.59375 102.675781 Z M 105.59375 102.675781 "/>
</g>
</g>
</svg>
