<svg width="42" height="39" viewBox="0 0 42 39" fill="none" xmlns="http://www.w3.org/2000/svg">
<path d="M20.8818 11.1841C22.2033 5.67404 27.1941 2.86056 38.0604 2.80909C38.2341 2.8084 38.4062 2.84403 38.5669 2.91393C38.7275 2.98384 38.8734 3.08663 38.9963 3.21638C39.1191 3.34613 39.2164 3.50028 39.2826 3.66994C39.3488 3.83961 39.3825 4.02143 39.3818 4.20492V29.3299C39.3818 29.7001 39.2426 30.0552 38.9948 30.3169C38.747 30.5787 38.4109 30.7258 38.0604 30.7258C27.489 30.7258 23.4049 32.9774 20.8818 36.3091C18.3736 32.994 14.2747 30.7258 3.70327 30.7258C2.88729 30.7258 2.38185 30.0235 2.38185 29.1615V4.20492C2.38119 4.02143 2.41492 3.83961 2.4811 3.66994C2.54727 3.50028 2.64459 3.34613 2.76742 3.21638C2.89026 3.08663 3.03619 2.98384 3.19681 2.91393C3.35743 2.84403 3.52956 2.8084 3.70327 2.80909C14.5695 2.86056 19.5604 5.67404 20.8818 11.1841Z" stroke="#61DDF7" stroke-width="4" stroke-linecap="round" stroke-linejoin="round"/>
<path d="M20.8809 11.1826V36.3076" stroke="#61DDF7" stroke-width="4" stroke-linecap="round" stroke-linejoin="round"/>
</svg>
