<svg width="70" height="70" viewBox="0 0 70 70" fill="none" xmlns="http://www.w3.org/2000/svg">
<path d="M43.0116 20.23C43.3554 19.1339 43.6743 18.2371 43.9035 17.3651C44.3357 15.8641 44.6686 14.3361 44.8999 12.7913C44.9234 12.0544 44.6548 11.3381 44.1526 10.7983C43.5339 10.1596 42.7916 9.65348 41.971 9.31085C41.1504 8.96822 40.2686 8.79622 39.3794 8.80533C37.9146 8.80533 37.3466 9.47796 37.4263 10.9577C37.5359 12.9158 37.6405 14.8739 37.7103 16.832C37.7452 17.8933 37.3765 18.5111 36.1159 18.2969C35.2908 18.1646 34.4498 18.1646 33.6247 18.2969C32.6282 18.4413 32.3143 17.978 32.3293 17.1409C32.3741 15.1878 32.404 13.2347 32.5535 11.2866C32.5948 10.9511 32.5585 10.6105 32.4473 10.2913C32.3362 9.97202 32.1532 9.68255 31.9125 9.4452C31.6718 9.20786 31.3798 9.02897 31.059 8.92235C30.7382 8.81573 30.3972 8.78421 30.0623 8.83024C29.3121 8.93864 28.5809 9.15164 27.8899 9.46301C25.2841 10.5841 24.6812 11.7051 25.2991 14.4454C25.6528 16.0099 26.1859 17.5345 26.6393 19.0791C26.8087 19.667 26.9881 20.2549 27.2123 21.0023C20.6255 17.5595 14.258 17.5146 7.87054 21.3262C10.4963 26.3086 14.537 28.1621 19.9679 27.3848C19.4696 28.6204 18.9714 29.7415 18.6326 30.9124C17.2425 35.3716 19.2205 40.2295 22.9424 42.7905C24.1807 43.5939 25.1893 44.7049 25.8696 46.0149C26.55 47.3249 26.8787 48.789 26.8237 50.2641C26.7938 54.9675 28.4828 58.5399 33.0019 59.9649C38.368 61.6539 43.7091 57.3043 43.3753 51.6841C43.2258 49.0733 43.8237 46.7017 45.5128 44.7386C45.9099 44.2959 46.1776 43.7525 46.2863 43.1678C46.395 42.5831 46.3406 41.9797 46.1291 41.4239C45.9175 40.8681 45.5571 40.3812 45.0871 40.0167C44.6172 39.6522 44.056 39.4242 43.465 39.3576C42.6015 39.22 41.8191 38.7688 41.2676 38.0904C40.716 37.4119 40.434 36.5539 40.4755 35.6805C40.635 33.6328 42.0699 32.138 44.023 32.153C50.9287 32.2078 57.8343 32.2726 64.74 32.4071C67.7294 32.4619 69.8768 34.9681 69.7573 38.117C69.5679 43.2439 67.9287 47.9273 65.4226 52.3617C62.8381 56.904 59.2615 60.8042 54.9595 63.7715C51.7119 66.0472 48.0893 67.7337 44.2572 68.7539C39.7794 69.9817 35.102 70.3064 30.4975 69.7092C25.8929 69.112 21.4532 67.6047 17.4367 65.2752C13.4203 62.9456 9.90743 59.8403 7.10263 56.1401C4.29783 52.4399 2.25716 48.2186 1.09942 43.7222C-0.217132 38.6036 -0.353165 33.2527 0.701598 28.0739C1.75636 22.895 3.97433 18.0236 7.18795 13.8276C11.2247 8.45638 16.7468 4.38577 23.0719 2.11892C29.8731 -0.366568 37.2794 -0.673513 44.2629 1.24067C51.2465 3.15486 57.4611 7.19525 62.0445 12.8012C62.7619 13.6781 63.4246 14.6049 64.0922 15.5266C64.4395 15.985 64.638 16.5386 64.6612 17.1131C64.6843 17.6877 64.531 18.2555 64.2218 18.7403C63.589 19.8912 62.5078 20.3197 61.2572 20.3147C55.8663 20.3147 50.4703 20.2599 45.0793 20.23H43.0116Z" fill="url(#paint0_linear)"/>
<defs>
<linearGradient id="paint0_linear" x1="7.48191" y1="14.8241" x2="62.747" y2="55.3113" gradientUnits="userSpaceOnUse">
<stop offset="0.11" stop-color="#61DDF7"/>
<stop offset="0.82" stop-color="#005FD2"/>
</linearGradient>
</defs>
</svg>
