<svg width="22" height="10" viewBox="0 0 22 10" fill="none" xmlns="http://www.w3.org/2000/svg">
<path d="M7.76471 5.25H6.76471V6.25C6.76471 7.73637 5.50721 9 3.88235 9C2.2575 9 1 7.73637 1 6.25V3.75C1 2.26363 2.2575 1 3.88235 1C5.50721 1 6.76471 2.26363 6.76471 3.75V4.75H7.76471H21V7.75H20.4118V6.25V5.25H19.4118H18.1176H17.1176V6.25V7.75H16.5294V6.25V5.25H15.5294H7.76471ZM6.17647 6.25V3.75C6.17647 2.47495 5.11638 1.5 3.88235 1.5C2.64832 1.5 1.58824 2.47495 1.58824 3.75V6.25C1.58824 7.52505 2.64832 8.5 3.88235 8.5C5.11638 8.5 6.17647 7.52505 6.17647 6.25Z" stroke="#00B4FF" stroke-width="2"/>
</svg>
