<svg width="44" height="43" viewBox="0 0 44 43" fill="none" xmlns="http://www.w3.org/2000/svg">
<path d="M21.7182 0C10.802 7.82669e-07 11.4837 4.75864 11.4837 4.75864L11.4959 9.68854H21.9129V11.1687H7.35828C7.35828 11.1687 0.373047 10.3724 0.373047 21.4444C0.373046 32.5165 6.46991 32.1239 6.46991 32.1239H10.1086V26.986C10.1086 26.986 9.91243 20.8573 16.1081 20.8573H26.4399C26.4399 20.8573 32.2447 20.9516 32.2447 15.2179V5.73728C32.2447 5.73728 33.126 0 21.7182 0ZM15.9742 3.31514C17.0106 3.31514 17.8483 4.15719 17.8483 5.19903C17.8483 6.24086 17.0106 7.08291 15.9742 7.08291C14.9378 7.08291 14.1001 6.24086 14.1001 5.19903C14.1001 4.15719 14.9378 3.31514 15.9742 3.31514Z" fill="#61DDF7"/>
<path d="M22.0286 42.9996C32.9448 42.9996 32.2631 38.241 32.2631 38.241L32.2509 33.3111H21.8339V31.8309L36.3885 31.8309C36.3885 31.8309 43.3737 32.6272 43.3737 21.5552C43.3737 10.4831 37.2769 10.8757 37.2769 10.8757H33.6382V16.0136C33.6382 16.0136 33.8344 22.1423 27.6387 22.1423H17.3069C17.3069 22.1423 11.5021 22.048 11.5021 27.7818V37.2623C11.5021 37.2623 10.6208 42.9996 22.0286 42.9996ZM27.7726 39.6845C26.7362 39.6845 25.8985 38.8424 25.8985 37.8006C25.8985 36.7588 26.7362 35.9167 27.7726 35.9167C28.809 35.9167 29.6467 36.7588 29.6467 37.8006C29.6467 38.8424 28.809 39.6845 27.7726 39.6845Z" fill="#61DDF7"/>
</svg>
