<svg width="22" height="31" viewBox="0 0 22 31" fill="none" xmlns="http://www.w3.org/2000/svg">
<path d="M12.5714 23.25C12.5714 22.394 11.8775 21.7 11.0214 21.7H10.9786C10.1225 21.7 9.42857 22.394 9.42857 23.25C9.42857 24.106 10.1225 24.8 10.9786 24.8H11.0214C11.8775 24.8 12.5714 24.106 12.5714 23.25Z" fill="#3EC6FF"/>
<path fill-rule="evenodd" clip-rule="evenodd" d="M0 3.1C0 1.38792 1.40711 0 3.14286 0H18.8571C20.5929 0 22 1.38792 22 3.1V27.9C22 29.6121 20.5929 31 18.8571 31H3.14286C1.4071 31 0 29.6121 0 27.9V3.1ZM3.14286 3.1H18.8571V27.9H3.14286L3.14286 3.1Z" fill="#3EC6FF"/>
</svg>
